# xmcd
#
# Track frame offsets: 
#        150
#        14639
#        28797
#        47149
#        68081
#        81369
#        95904
#        111926
#        128689
#        144149
#        158844
#        190169
#
# Disc length: 2845 seconds
#
# Revision: 0
# Processed by: cddbd v1.5.2PL0 Copyright (c) Steve Scherf et al.
# Submitted via: ExactAudioCopy v1.0b3
#
DISCID=a30b1b0c
DTITLE=Lucy Hale - Road Between
DYEAR=2014
DGENRE=Country
TTITLE0=You Sound Good to Me
TTITLE1=From the Backseat
TTITLE2=Nervous Girls
TTITLE3=Red Dress (Duet with Joe Nichols)
TTITLE4=Goodbye Gone
TTITLE5=Kiss Me
TTITLE6=Road Between
TTITLE7=Lie a Little Better
TTITLE8=That's What I Call Crazy
TTITLE9=Love Tonight
TTITLE10=Just Another Song
TTITLE11=CD-ROM Data
EXTD=
EXTT0=
EXTT1=
EXTT2=
EXTT3=
EXTT4=
EXTT5=
EXTT6=
EXTT7=
EXTT8=
EXTT9=
EXTT10=
EXTT11=
PLAYORDER=
